<svg xmlns="http://www.w3.org/2000/svg" version="1.1" xmlns:xlink="http://www.w3.org/1999/xlink" xmlns:svgjs="http://svgjs.dev/svgjs" width="1500" height="1500" viewBox="0 0 1500 1500"><rect width="1500" height="1500" fill="#ffffff"></rect><g transform="matrix(0.6666666666666666,0,0,0.6666666666666666,249.39393939393938,580.2814651519261)"><svg viewBox="0 0 396 135" data-background-color="#471aa0" preserveAspectRatio="xMidYMid meet" height="511" width="1500" xmlns="http://www.w3.org/2000/svg" xmlns:xlink="http://www.w3.org/1999/xlink"><g id="tight-bounds" transform="matrix(1,0,0,1,0.2400000000000091,-0.24363345061649966)"><svg viewBox="0 0 395.52 135.487266901233" height="135.487266901233" width="395.52"><g><svg viewBox="0 0 626.1437014550625 214.48851839999998" height="135.487266901233" width="395.52"><g transform="matrix(1,0,0,1,0,56.39396394511709)"><svg viewBox="0 0 395.52 101.70059050976579" height="101.70059050976579" width="395.52"><g id="textblocktransform"><svg viewBox="0 0 395.52 101.70059050976579" height="101.70059050976579" width="395.52" id="textblock"><g><svg viewBox="0 0 395.52 68.34740954210694" height="68.34740954210694" width="395.52"><g transform="matrix(1,0,0,1,0,0)"><svg width="395.52" viewBox="3.25 -39.04 228.71 39.53" height="68.34740954210694" data-palette-color="#ffffff"><path d="M17.26-28L10.25-28 10.25-13.99 17.26-13.99Q18.7-13.99 19.97-14.54 21.24-15.09 22.19-16.04 23.14-16.99 23.69-18.27 24.24-19.56 24.24-21L24.24-21Q24.24-22.44 23.69-23.72 23.14-25 22.19-25.95 21.24-26.9 19.97-27.45 18.7-28 17.26-28L17.26-28ZM10.25-7.01L10.25 0 3.25 0 3.25-35.01 17.26-35.01Q19.19-35.01 20.97-34.51 22.75-34.01 24.3-33.09 25.85-32.18 27.14-30.9 28.42-29.61 29.33-28.05 30.25-26.49 30.75-24.71 31.25-22.92 31.25-21L31.25-21Q31.25-18.12 30.15-15.56 29.05-13.01 27.15-11.11 25.24-9.2 22.69-8.11 20.14-7.01 17.26-7.01L17.26-7.01 10.25-7.01ZM59.91-13.31L59.91-13.31Q59.91-10.38 58.86-7.85 57.81-5.32 56-3.48 54.2-1.64 51.77-0.57 49.34 0.49 46.56 0.49L46.56 0.49Q43.8 0.49 41.37-0.57 38.94-1.64 37.12-3.48 35.3-5.32 34.25-7.85 33.2-10.38 33.2-13.31L33.2-13.31Q33.2-16.28 34.25-18.82 35.3-21.36 37.12-23.21 38.94-25.05 41.37-26.1 43.8-27.15 46.56-27.15L46.56-27.15Q49.34-27.15 51.77-26.16 54.2-25.17 56-23.35 57.81-21.53 58.86-18.98 59.91-16.43 59.91-13.31ZM53.2-13.31L53.2-13.31Q53.2-14.92 52.67-16.22 52.15-17.53 51.24-18.47 50.34-19.41 49.13-19.91 47.92-20.41 46.56-20.41L46.56-20.41Q45.19-20.41 43.98-19.91 42.77-19.41 41.88-18.47 40.99-17.53 40.48-16.22 39.96-14.92 39.96-13.31L39.96-13.31Q39.96-11.79 40.48-10.5 40.99-9.2 41.88-8.25 42.77-7.3 43.98-6.75 45.19-6.2 46.56-6.2L46.56-6.2Q47.92-6.2 49.13-6.71 50.34-7.23 51.24-8.15 52.15-9.08 52.67-10.4 53.2-11.72 53.2-13.31ZM70.26-14.4L70.26 0 63.59 0 63.59-26.15 65.2-26.15 67.4-23.05Q69.01-24.51 71.06-25.31 73.12-26.1 75.31-26.1L75.31-26.1 81.2-26.1 81.2-19.46 75.31-19.46Q74.26-19.46 73.33-19.07 72.41-18.68 71.72-17.99 71.04-17.31 70.65-16.38 70.26-15.45 70.26-14.4L70.26-14.4ZM102.46 0L97.4 0Q94.99 0 92.86-0.92 90.74-1.83 89.14-3.43 87.54-5.03 86.63-7.15 85.71-9.28 85.71-11.69L85.71-11.69 85.71-19.46 82.46-19.46 82.46-26.1 85.71-26.1 85.71-36.55 92.35-36.55 92.35-26.1 102.46-26.1 102.46-19.46 92.35-19.46 92.35-11.69Q92.35-10.64 92.74-9.73 93.13-8.81 93.82-8.13 94.5-7.45 95.43-7.04 96.35-6.64 97.4-6.64L97.4-6.64 102.46-6.64 102.46 0ZM131.46-13.31L131.46-13.31Q131.46-10.38 130.41-7.85 129.36-5.32 127.55-3.48 125.75-1.64 123.32-0.57 120.89 0.49 118.11 0.49L118.11 0.49Q115.35 0.49 112.92-0.57 110.49-1.64 108.67-3.48 106.85-5.32 105.8-7.85 104.75-10.38 104.75-13.31L104.75-13.31Q104.75-16.28 105.8-18.82 106.85-21.36 108.67-23.21 110.49-25.05 112.92-26.1 115.35-27.15 118.11-27.15L118.11-27.15Q120.89-27.15 123.32-26.16 125.75-25.17 127.55-23.35 129.36-21.53 130.41-18.98 131.46-16.43 131.46-13.31ZM124.75-13.31L124.75-13.31Q124.75-14.92 124.22-16.22 123.7-17.53 122.79-18.47 121.89-19.41 120.68-19.91 119.47-20.41 118.11-20.41L118.11-20.41Q116.74-20.41 115.53-19.91 114.32-19.41 113.43-18.47 112.54-17.53 112.03-16.22 111.51-14.92 111.51-13.31L111.51-13.31Q111.51-11.79 112.03-10.5 112.54-9.2 113.43-8.25 114.32-7.3 115.53-6.75 116.74-6.2 118.11-6.2L118.11-6.2Q119.47-6.2 120.68-6.71 121.89-7.23 122.79-8.15 123.7-9.08 124.22-10.4 124.75-11.72 124.75-13.31ZM143.32-19.51L143.32 0 136.66 0 136.66-19.51 133.41-19.51 133.41-26.15 136.66-26.15 136.66-27.39Q136.66-29.81 137.57-31.93 138.49-34.06 140.09-35.63 141.69-37.21 143.81-38.12 145.93-39.04 148.35-39.04L148.35-39.04 153.36-39.04 153.36-32.4 148.35-32.4Q147.28-32.4 146.36-32.02 145.45-31.64 144.78-30.97 144.1-30.3 143.71-29.38 143.32-28.47 143.32-27.39L143.32-27.39 143.32-26.15 151.5-26.15 151.5-19.51 143.32-19.51ZM179.43-13.31L179.43-13.31Q179.43-10.38 178.38-7.85 177.33-5.32 175.52-3.48 173.72-1.64 171.29-0.57 168.86 0.49 166.07 0.49L166.07 0.49Q163.32 0.49 160.89-0.57 158.46-1.64 156.64-3.48 154.82-5.32 153.77-7.85 152.72-10.38 152.72-13.31L152.72-13.31Q152.72-16.28 153.77-18.82 154.82-21.36 156.64-23.21 158.46-25.05 160.89-26.1 163.32-27.15 166.07-27.15L166.07-27.15Q168.86-27.15 171.29-26.16 173.72-25.17 175.52-23.35 177.33-21.53 178.38-18.98 179.43-16.43 179.43-13.31ZM172.71-13.31L172.71-13.31Q172.71-14.92 172.19-16.22 171.66-17.53 170.76-18.47 169.86-19.41 168.65-19.91 167.44-20.41 166.07-20.41L166.07-20.41Q164.71-20.41 163.5-19.91 162.29-19.41 161.4-18.47 160.51-17.53 159.99-16.22 159.48-14.92 159.48-13.31L159.48-13.31Q159.48-11.79 159.99-10.5 160.51-9.2 161.4-8.25 162.29-7.3 163.5-6.75 164.71-6.2 166.07-6.2L166.07-6.2Q167.44-6.2 168.65-6.71 169.86-7.23 170.76-8.15 171.66-9.08 172.19-10.4 172.71-11.72 172.71-13.31ZM189.83-36.55L189.83 0 183.11 0 183.11-36.55 189.83-36.55ZM202.76-33.25L202.76-33.25Q202.76-32.32 202.41-31.52 202.06-30.71 201.44-30.11 200.83-29.52 200.02-29.16 199.2-28.81 198.27-28.81L198.27-28.81Q197.34-28.81 196.53-29.16 195.71-29.52 195.11-30.11 194.51-30.71 194.16-31.52 193.8-32.32 193.8-33.25L193.8-33.25Q193.8-34.16 194.16-34.97 194.51-35.79 195.11-36.39 195.71-36.99 196.53-37.34 197.34-37.7 198.27-37.7L198.27-37.7Q199.2-37.7 200.02-37.34 200.83-36.99 201.44-36.39 202.06-35.79 202.41-34.97 202.76-34.16 202.76-33.25ZM201.62-26.15L201.62 0 194.9 0 194.9-26.15 201.62-26.15ZM231.96-13.31L231.96-13.31Q231.96-10.38 230.91-7.85 229.86-5.32 228.05-3.48 226.25-1.64 223.82-0.57 221.39 0.49 218.61 0.49L218.61 0.49Q215.85 0.49 213.42-0.57 210.99-1.64 209.17-3.48 207.35-5.32 206.3-7.85 205.25-10.38 205.25-13.31L205.25-13.31Q205.25-16.28 206.3-18.82 207.35-21.36 209.17-23.21 210.99-25.05 213.42-26.1 215.85-27.15 218.61-27.15L218.61-27.15Q221.39-27.15 223.82-26.16 226.25-25.17 228.05-23.35 229.86-21.53 230.91-18.98 231.96-16.43 231.96-13.31ZM225.25-13.31L225.25-13.31Q225.25-14.92 224.72-16.22 224.2-17.53 223.29-18.47 222.39-19.41 221.18-19.91 219.97-20.41 218.61-20.41L218.61-20.41Q217.24-20.41 216.03-19.91 214.82-19.41 213.93-18.47 213.04-17.53 212.53-16.22 212.01-14.92 212.01-13.31L212.01-13.31Q212.01-11.79 212.53-10.5 213.04-9.2 213.93-8.25 214.82-7.3 216.03-6.75 217.24-6.2 218.61-6.2L218.61-6.2Q219.97-6.2 221.18-6.71 222.39-7.23 223.29-8.15 224.2-9.08 224.72-10.4 225.25-11.72 225.25-13.31Z" opacity="1" transform="matrix(1,0,0,1,0,0)" fill="#000000" class="wordmark-text-0" data-fill-palette-color="primary" id="text-0"></path></svg></g></svg></g><g transform="matrix(1,0,0,1,163.310208,84.48259259716939)"><svg viewBox="0 0 232.209792 17.217997912596402" height="17.217997912596402" width="232.209792"><g transform="matrix(1,0,0,1,0,0)"><svg width="232.209792" viewBox="2.05 -33.94 607.74 45.07" height="17.217997912596402" data-palette-color="#ffffff"><path d="M13.18 0L2.34 0 2.2-2.05 5.27-2.83Q5.27-3.13 5.3-3.88 5.32-4.64 5.32-5.66 5.32-6.69 5.35-7.84 5.37-8.98 5.37-10.06L5.37-10.06 5.37-18.55Q5.37-20.75 5.35-22.31 5.32-23.88 5.25-24.8 5.18-25.73 5.08-25.93L5.08-25.93 2.05-26.61 2.2-28.66 13.53-28.66Q18.46-28.66 20.97-26.88 23.49-25.1 23.49-21.48L23.49-21.48Q23.49-19.09 22.09-17.21 20.7-15.33 18.29-14.28 15.87-13.23 12.74-13.23L12.74-13.23 9.67-13.23 9.67-15.63 12.21-15.63Q15.04-15.63 16.65-17.14 18.26-18.65 18.26-21.24L18.26-21.24Q18.26-23.73 16.89-25.02 15.53-26.32 12.89-26.32L12.89-26.32 10.35-26.32Q10.3-26.17 10.28-25.78 10.25-25.39 10.25-24.58 10.25-23.78 10.25-22.49 10.25-21.19 10.25-19.19L10.25-19.19 10.25-10.06Q10.25-8.2 10.28-6.74 10.3-5.27 10.38-4.27 10.45-3.27 10.5-2.83L10.5-2.83 13.33-2.05 13.18 0ZM26.27 0.49L26.27 0.49Q23.93 0.49 22.12-0.34 20.31-1.17 18.7-3.03 17.09-4.88 15.43-8.01L15.43-8.01 12.3-14.01 16.5-14.99 21.92-7.08Q23.19-5.27 24.27-4.17 25.34-3.08 26.42-2.49 27.49-1.9 28.71-1.61L28.71-1.61 28.66 0.29Q28.08 0.44 27.47 0.46 26.86 0.49 26.27 0.49ZM40.09 0.39L40.09 0.39Q37.16 0.39 34.81-0.93 32.47-2.25 31.1-4.64 29.73-7.03 29.73-10.21L29.73-10.21Q29.73-13.67 31.2-16.21 32.66-18.75 35.03-20.17 37.4-21.58 40.13-21.53L40.13-21.53Q44.14-21.48 46.34-18.92 48.53-16.36 48.53-11.96L48.53-11.96 48.53-10.99 33.79-10.99 33.79-13.28 44.82-13.28 44.19-12.45 44.19-13.72Q44.19-16.31 43.02-17.8 41.84-19.29 39.74-19.29L39.74-19.29Q38.43-19.29 37.25-18.51 36.08-17.72 35.35-16.16 34.62-14.6 34.62-12.26L34.62-12.26 34.62-11.52Q34.62-7.71 36.57-5.52 38.52-3.32 41.65-3.32L41.65-3.32Q43.31-3.32 44.68-3.96 46.04-4.59 47.31-6.15L47.31-6.15 48.63-4.93Q47.26-2.25 45.04-0.93 42.82 0.39 40.09 0.39ZM63.23 10.74L51.41 10.74 51.26 8.84 54.29 8.06Q54.29 7.81 54.34 7.15 54.39 6.49 54.41 5.42 54.44 4.35 54.46 2.88 54.49 1.42 54.49-0.44L54.49-0.44 54.58-11.72Q54.58-13.18 54.49-14.6 54.39-16.02 54.19-16.99L54.19-16.99 51.07-17.68 51.07-19.48 58.3-21.44 59.32-20.65 58.98-17.87 59.13-17.82Q60.44-19.58 62.1-20.56 63.76-21.53 65.72-21.53L65.72-21.53Q68.31-21.53 70.36-20.24 72.41-18.95 73.63-16.63 74.85-14.31 74.85-11.23L74.85-11.23Q74.85-8.01 73.38-5.4 71.92-2.78 69.36-1.22 66.79 0.34 63.42 0.34L63.42 0.34Q62.4 0.34 61.25 0.15 60.1-0.05 59.17-0.44L59.17-0.44 59.17 3.03Q59.17 4.83 59.25 6.2 59.32 7.57 59.37 8.06L59.37 8.06 63.37 8.74 63.23 10.74ZM63.57-2.39L63.57-2.39Q65.42-2.39 66.79-3.27 68.16-4.15 68.94-5.88 69.72-7.62 69.77-10.11L69.77-10.11Q69.82-12.5 69.01-14.23 68.21-15.97 66.89-16.89 65.57-17.82 63.91-17.82L63.91-17.82Q62.5-17.82 61.3-17.19 60.1-16.55 59.17-15.33L59.17-15.33 59.17-3.76Q60-3.13 61.18-2.76 62.35-2.39 63.57-2.39ZM89.54 0.39L89.54 0.39Q86.32 0.39 83.85-1 81.39-2.39 80.02-4.86 78.65-7.32 78.65-10.5L78.65-10.5Q78.65-13.87 80.19-16.33 81.73-18.8 84.25-20.17 86.76-21.53 89.74-21.53L89.74-21.53Q92.81-21.53 95.13-20.17 97.45-18.8 98.77-16.38 100.09-13.96 100.09-10.79L100.09-10.79Q100.09-7.67 98.67-5.13 97.26-2.59 94.87-1.1 92.47 0.39 89.54 0.39ZM90.03-2.15L90.03-2.15Q91.55-2.15 92.64-3.08 93.74-4 94.35-5.71 94.96-7.42 94.96-9.62L94.96-9.62Q94.96-13.87 93.35-16.48 91.74-19.09 89.1-19.09L89.1-19.09Q86.76-19.09 85.32-16.99 83.88-14.89 83.88-11.43L83.88-11.43Q83.88-8.74 84.66-6.64 85.44-4.54 86.86-3.34 88.27-2.15 90.03-2.15ZM111.51 0.39L111.51 0.39Q109.66 0.39 107.78-0.05 105.9-0.49 104.58-1.17L104.58-1.17 104.34-6.59 106.97-6.59 107.95-3.08Q109.66-1.9 111.86-1.9L111.86-1.9Q113.47-1.9 114.42-2.66 115.37-3.42 115.37-4.64L115.37-4.64Q115.37-5.86 114.47-6.76 113.56-7.67 110.88-8.74L110.88-8.74Q107.36-10.16 105.95-11.62 104.53-13.09 104.53-15.33L104.53-15.33Q104.53-17.14 105.65-18.53 106.78-19.92 108.73-20.73 110.68-21.53 113.27-21.53L113.27-21.53Q114.69-21.53 116.15-21.29 117.62-21.04 118.64-20.61L118.64-20.61 119.18-15.33 116.64-15.33 115.47-18.65Q114.98-18.95 114.3-19.12 113.61-19.29 112.88-19.29L112.88-19.29Q111.22-19.29 110.22-18.53 109.22-17.77 109.22-16.6L109.22-16.6Q109.22-15.28 110.34-14.4 111.46-13.53 114.3-12.26L114.3-12.26Q117.52-10.84 118.84-9.4 120.16-7.96 120.16-5.86L120.16-5.86Q120.16-3.13 117.74-1.37 115.32 0.39 111.51 0.39ZM134.26 0L122.89 0 122.74-1.95 126.01-2.69Q126.06-2.88 126.11-3.44 126.16-4 126.18-5.05 126.21-6.1 126.21-7.76L126.21-7.76 126.26-11.23Q126.26-13.04 126.16-14.53 126.06-16.02 125.87-16.99L125.87-16.99 122.59-17.68 122.59-19.48 130.21-21.44 131.14-20.7Q130.99-19.19 130.92-17.68 130.85-16.16 130.85-14.16L130.85-14.16 130.85-8.01Q130.85-6.01 130.92-4.54 130.99-3.08 131.14-2.69L131.14-2.69 134.41-1.95 134.26 0ZM128.6-26.46L128.6-26.46Q127.14-26.46 126.18-27.39 125.23-28.32 125.23-29.69L125.23-29.69Q125.23-31.01 126.18-31.96 127.14-32.91 128.6-32.91L128.6-32.91Q130.07-32.91 130.97-31.96 131.87-31.01 131.87-29.69L131.87-29.69Q131.87-28.32 130.97-27.39 130.07-26.46 128.6-26.46ZM151.6-4.64L152.57-3.37Q151.74-1.61 150.01-0.61 148.28 0.39 146.37 0.39L146.37 0.39Q143.25 0.39 141.24-1.46 139.24-3.32 139.24-7.03L139.24-7.03 139.39-18.41 135.97-18.41 135.97-19.63 142.9-25.63 144.08-25.63 143.98-19.63 143.88-7.71Q143.88-5.37 144.93-4.25 145.98-3.13 147.93-3.13L147.93-3.13Q149.01-3.13 149.94-3.54 150.86-3.96 151.6-4.64L151.6-4.64ZM151.16-18.41L141.83-18.41 141.83-21.09 151.16-21.09 151.16-18.41ZM164.63 0.39L164.63 0.39Q161.41 0.39 158.94-1 156.48-2.39 155.11-4.86 153.74-7.32 153.74-10.5L153.74-10.5Q153.74-13.87 155.28-16.33 156.82-18.8 159.33-20.17 161.85-21.53 164.83-21.53L164.83-21.53Q167.9-21.53 170.22-20.17 172.54-18.8 173.86-16.38 175.18-13.96 175.18-10.79L175.18-10.79Q175.18-7.67 173.76-5.13 172.35-2.59 169.95-1.1 167.56 0.39 164.63 0.39ZM165.12-2.15L165.12-2.15Q166.63-2.15 167.73-3.08 168.83-4 169.44-5.71 170.05-7.42 170.05-9.62L170.05-9.62Q170.05-13.87 168.44-16.48 166.83-19.09 164.19-19.09L164.19-19.09Q161.85-19.09 160.41-16.99 158.97-14.89 158.97-11.43L158.97-11.43Q158.97-8.74 159.75-6.64 160.53-4.54 161.95-3.34 163.36-2.15 165.12-2.15ZM190.61 0L178.45 0 178.3-1.9 181.33-2.69Q181.38-2.88 181.43-3.52 181.47-4.15 181.52-5.22 181.57-6.3 181.57-7.76L181.57-7.76 181.57-11.52Q181.57-13.13 181.47-14.58 181.38-16.02 181.18-16.99L181.18-16.99 178.06-17.68 178.06-19.48 185.23-21.44 186.11-20.7 185.92-16.7 186.06-16.65Q187.53-19.43 188.99-20.41 190.46-21.39 191.87-21.39L191.87-21.39Q193.1-21.39 193.93-20.78 194.76-20.17 194.76-18.9L194.76-18.9Q194.76-17.63 193.85-16.94 192.95-16.26 191.68-16.26L191.68-16.26Q190.7-16.26 189.85-16.63 188.99-16.99 188.16-17.82L188.16-17.82 189.14-17.58Q188.36-16.99 187.55-16.02 186.75-15.04 186.11-13.67L186.11-13.67 186.16-9.33Q186.21-7.91 186.26-6.57 186.31-5.22 186.36-4.2 186.41-3.17 186.45-2.69L186.45-2.69 190.7-2 190.61 0ZM209.4-4.54L206.52 0.2 197.78-18.46 195.49-19.19 195.63-21.14 206.03-21.14 206.18-19.19 203.15-18.46 209.4-4.54ZM211.06-21.14L219.36-21.14 219.46-19.19 217.17-18.46 208.82-1.22 204.96 6.88Q203.79 9.28 202.57 10.21 201.34 11.13 199.78 11.13L199.78 11.13Q198.42 11.13 197.56 10.47 196.71 9.81 196.71 8.84L196.71 8.84Q196.71 7.96 197.39 7.25 198.07 6.54 199.49 6.1L199.49 6.1 204.42 4.69 201.83 7.03 207.4-3.56 207.99-4.54 213.94-18.46 210.92-19.19 211.06-21.14ZM246.65 0.44L246.65 0.44Q242.26 0.44 238.74-1.2 235.23-2.83 233.15-6.08 231.08-9.33 231.08-14.06L231.08-14.06Q231.08-17.29 232.2-20.02 233.32-22.75 235.47-24.78 237.62-26.81 240.65-27.95 243.67-29.1 247.48-29.1L247.48-29.1Q249.53-29.1 251.78-28.69 254.03-28.27 255.69-27.54L255.69-27.54 256.03-20.61 253.59-20.41 252.07-25.2Q251.14-25.78 249.75-26.07 248.36-26.37 247.04-26.37L247.04-26.37Q243.62-26.37 241.43-24.85 239.23-23.34 238.16-20.78 237.08-18.21 237.08-14.99L237.08-14.99Q237.08-10.99 238.45-8.15 239.82-5.32 242.16-3.86 244.5-2.39 247.38-2.39L247.38-2.39Q248.8-2.39 250.12-2.76 251.44-3.13 252.51-3.81L252.51-3.81 254.51-8.35 257.1-8.06 255.69-1.86Q254.07-0.93 251.68-0.24 249.29 0.44 246.65 0.44ZM270.87 0.39L270.87 0.39Q267.65 0.39 265.18-1 262.71-2.39 261.35-4.86 259.98-7.32 259.98-10.5L259.98-10.5Q259.98-13.87 261.52-16.33 263.06-18.8 265.57-20.17 268.09-21.53 271.06-21.53L271.06-21.53Q274.14-21.53 276.46-20.17 278.78-18.8 280.1-16.38 281.42-13.96 281.42-10.79L281.42-10.79Q281.42-7.67 280-5.13 278.58-2.59 276.19-1.1 273.8 0.39 270.87 0.39ZM271.36-2.15L271.36-2.15Q272.87-2.15 273.97-3.08 275.07-4 275.68-5.71 276.29-7.42 276.29-9.62L276.29-9.62Q276.29-13.87 274.68-16.48 273.07-19.09 270.43-19.09L270.43-19.09Q268.09-19.09 266.64-16.99 265.2-14.89 265.2-11.43L265.2-11.43Q265.2-8.74 265.99-6.64 266.77-4.54 268.18-3.34 269.6-2.15 271.36-2.15ZM295.72 0L284.49 0 284.34-1.95 287.52-2.69Q287.61-3.17 287.66-4.35 287.71-5.52 287.74-7.37 287.76-9.23 287.76-11.57L287.76-11.57 287.76-17.72Q287.76-19.48 287.74-21.34 287.71-23.19 287.69-24.88 287.66-26.56 287.64-27.81 287.61-29.05 287.57-29.59L287.57-29.59 283.95-30.08 283.85-31.79 291.62-33.94 292.69-33.2Q292.64-31.15 292.57-29.15 292.5-27.15 292.47-24.66 292.45-22.17 292.45-18.7L292.45-18.7 292.4-11.04Q292.4-7.96 292.47-5.59 292.55-3.22 292.64-2.69L292.64-2.69 295.82-1.95 295.72 0ZM309.24 0L298.01 0 297.87-1.95 301.04-2.69Q301.14-3.17 301.19-4.35 301.23-5.52 301.26-7.37 301.28-9.23 301.28-11.57L301.28-11.57 301.28-17.72Q301.28-19.48 301.26-21.34 301.23-23.19 301.21-24.88 301.19-26.56 301.16-27.81 301.14-29.05 301.09-29.59L301.09-29.59 297.47-30.08 297.38-31.79 305.14-33.94 306.22-33.2Q306.17-31.15 306.09-29.15 306.02-27.15 306-24.66 305.97-22.17 305.97-18.7L305.97-18.7 305.92-11.04Q305.92-7.96 306-5.59 306.07-3.22 306.17-2.69L306.17-2.69 309.34-1.95 309.24 0ZM322.62 0.39L322.62 0.39Q319.69 0.39 317.35-0.93 315-2.25 313.63-4.64 312.27-7.03 312.27-10.21L312.27-10.21Q312.27-13.67 313.73-16.21 315.2-18.75 317.57-20.17 319.93-21.58 322.67-21.53L322.67-21.53Q326.67-21.48 328.87-18.92 331.07-16.36 331.07-11.96L331.07-11.96 331.07-10.99 316.32-10.99 316.32-13.28 327.36-13.28 326.72-12.45 326.72-13.72Q326.72-16.31 325.55-17.8 324.38-19.29 322.28-19.29L322.28-19.29Q320.96-19.29 319.79-18.51 318.61-17.72 317.88-16.16 317.15-14.6 317.15-12.26L317.15-12.26 317.15-11.52Q317.15-7.71 319.1-5.52 321.06-3.32 324.18-3.32L324.18-3.32Q325.84-3.32 327.21-3.96 328.58-4.59 329.85-6.15L329.85-6.15 331.16-4.93Q329.8-2.25 327.57-0.93 325.35 0.39 322.62 0.39ZM344.98 0.39L344.98 0.39Q342.15 0.39 339.78-0.9 337.41-2.2 336-4.57 334.58-6.93 334.58-10.11L334.58-10.11Q334.58-13.28 336.07-15.87 337.56-18.46 340.15-20 342.73-21.53 346-21.53L346-21.53Q348.15-21.53 349.69-20.97 351.23-20.41 352.08-19.51 352.94-18.6 352.94-17.53L352.94-17.53Q352.94-16.55 352.35-16.02 351.77-15.48 350.84-15.48L350.84-15.48Q349.96-15.48 349.37-15.8 348.79-16.11 347.91-16.94L347.91-16.94 345.08-19.68 347.03-19.14Q345.27-19.53 343.59-18.75 341.9-17.97 340.83-16.11 339.75-14.26 339.75-11.28L339.75-11.28Q339.75-7.42 341.68-5.4 343.61-3.37 346.49-3.37L346.49-3.37Q348.2-3.37 349.54-4.03 350.89-4.69 352.16-6.2L352.16-6.2 353.52-4.98Q352.16-2.29 349.94-0.95 347.71 0.39 344.98 0.39ZM370.32-4.64L371.3-3.37Q370.47-1.61 368.73-0.61 367 0.39 365.09 0.39L365.09 0.39Q361.97 0.39 359.97-1.46 357.97-3.32 357.97-7.03L357.97-7.03 358.11-18.41 354.69-18.41 354.69-19.63 361.63-25.63 362.8-25.63 362.7-19.63 362.6-7.71Q362.6-5.37 363.65-4.25 364.7-3.13 366.66-3.13L366.66-3.13Q367.73-3.13 368.66-3.54 369.59-3.96 370.32-4.64L370.32-4.64ZM369.88-18.41L360.55-18.41 360.55-21.09 369.88-21.09 369.88-18.41ZM383.55 0L372.17 0 372.03-1.95 375.3-2.69Q375.35-2.88 375.39-3.44 375.44-4 375.47-5.05 375.49-6.1 375.49-7.76L375.49-7.76 375.54-11.23Q375.54-13.04 375.44-14.53 375.35-16.02 375.15-16.99L375.15-16.99 371.88-17.68 371.88-19.48 379.5-21.44 380.42-20.7Q380.28-19.19 380.2-17.68 380.13-16.16 380.13-14.16L380.13-14.16 380.13-8.01Q380.13-6.01 380.2-4.54 380.28-3.08 380.42-2.69L380.42-2.69 383.7-1.95 383.55 0ZM377.88-26.46L377.88-26.46Q376.42-26.46 375.47-27.39 374.52-28.32 374.52-29.69L374.52-29.69Q374.52-31.01 375.47-31.96 376.42-32.91 377.88-32.91L377.88-32.91Q379.35-32.91 380.25-31.96 381.16-31.01 381.16-29.69L381.16-29.69Q381.16-28.32 380.25-27.39 379.35-26.46 377.88-26.46ZM397.32 0.39L397.32 0.39Q394.09 0.39 391.63-1 389.16-2.39 387.79-4.86 386.43-7.32 386.43-10.5L386.43-10.5Q386.43-13.87 387.97-16.33 389.5-18.8 392.02-20.17 394.53-21.53 397.51-21.53L397.51-21.53Q400.59-21.53 402.91-20.17 405.23-18.8 406.54-16.38 407.86-13.96 407.86-10.79L407.86-10.79Q407.86-7.67 406.45-5.13 405.03-2.59 402.64-1.1 400.25 0.39 397.32 0.39ZM397.8-2.15L397.8-2.15Q399.32-2.15 400.42-3.08 401.52-4 402.13-5.71 402.74-7.42 402.74-9.62L402.74-9.62Q402.74-13.87 401.12-16.48 399.51-19.09 396.88-19.09L396.88-19.09Q394.53-19.09 393.09-16.99 391.65-14.89 391.65-11.43L391.65-11.43Q391.65-8.74 392.43-6.64 393.21-4.54 394.63-3.34 396.05-2.15 397.8-2.15ZM421.92 0L411.08 0 410.94-1.9 413.96-2.69Q414.01-2.93 414.06-3.54 414.11-4.15 414.13-5.18 414.16-6.2 414.16-7.76L414.16-7.76 414.21-11.52Q414.21-13.13 414.11-14.58 414.01-16.02 413.82-16.99L413.82-16.99 410.69-17.68 410.69-19.48 417.92-21.44 418.94-20.65 418.65-17.97 418.8-17.92Q420.46-19.78 422.17-20.65 423.88-21.53 425.83-21.53L425.83-21.53Q427.73-21.53 429.34-20.58 430.96-19.63 431.96-17.72 432.96-15.82 432.96-12.94L432.96-12.94 432.96-7.71Q432.96-6.01 433.03-4.57 433.1-3.13 433.2-2.69L433.2-2.69 436.23-1.9 436.13 0 425.49 0 425.34-1.9 428.17-2.69Q428.27-3.08 428.32-3.74 428.37-4.39 428.39-5.35 428.42-6.3 428.42-7.47L428.42-7.47 428.42-12.35Q428.42-14.4 427.73-15.65 427.05-16.89 426-17.46 424.95-18.02 423.78-18.02L423.78-18.02Q422.26-18.02 420.99-17.31 419.73-16.6 418.8-15.33L418.8-15.33 418.8-8.01Q418.8-5.96 418.87-4.54 418.94-3.13 419.04-2.69L419.04-2.69 422.07-1.9 421.92 0ZM468.94-24.8L470.6-20.75 462.01 0.15 459.76 0.15 449.31-25.93 446.87-26.61 446.97-28.66 457.42-28.66 457.51-26.61 455.07-25.93 462.93-5.37 461.52-5.37 468.94-24.8ZM479.83 0.15L477.53 0.15 467.13-25.93 464.64-26.61 464.79-28.66 475.58-28.66 475.73-26.61 472.75-25.93 480.66-5.37 479.29-5.37 486.81-25.93 483.39-26.61 483.54-28.66 492.82-28.66 492.96-26.61 490.47-25.93 479.83 0.15ZM503.07 0.39L503.07 0.39Q500.14 0.39 497.79-0.93 495.45-2.25 494.08-4.64 492.72-7.03 492.72-10.21L492.72-10.21Q492.72-13.67 494.18-16.21 495.65-18.75 498.01-20.17 500.38-21.58 503.12-21.53L503.12-21.53Q507.12-21.48 509.32-18.92 511.51-16.36 511.51-11.96L511.51-11.96 511.51-10.99 496.77-10.99 496.77-13.28 507.8-13.28 507.17-12.45 507.17-13.72Q507.17-16.31 506-17.8 504.83-19.29 502.73-19.29L502.73-19.29Q501.41-19.29 500.24-18.51 499.06-17.72 498.33-16.16 497.6-14.6 497.6-12.26L497.6-12.26 497.6-11.52Q497.6-7.71 499.55-5.52 501.51-3.32 504.63-3.32L504.63-3.32Q506.29-3.32 507.66-3.96 509.02-4.59 510.29-6.15L510.29-6.15 511.61-4.93Q510.25-2.25 508.02-0.93 505.8 0.39 503.07 0.39ZM516.59-1.32L516.59-1.32Q516.69-3.03 516.71-4.42 516.74-5.81 516.74-7.2 516.74-8.59 516.74-10.06L516.74-10.06 516.74-17.72Q516.74-19.58 516.71-21.48 516.69-23.39 516.66-25.05 516.64-26.71 516.61-27.93 516.59-29.15 516.54-29.64L516.54-29.64 512.93-30.08 512.83-31.79 520.45-33.94 521.57-33.2Q521.47-31.2 521.4-29.17 521.33-27.15 521.3-24.49 521.28-21.83 521.18-17.92L521.18-17.92 521.33-17.87Q522.45-19.43 524.26-20.48 526.06-21.53 528.16-21.53L528.16-21.53Q530.6-21.53 532.65-20.34 534.71-19.14 535.95-16.92 537.2-14.7 537.2-11.52L537.2-11.52Q537.2-8.11 535.58-5.42 533.97-2.73 531.14-1.17 528.31 0.39 524.79 0.39L524.79 0.39Q522.65 0.39 520.52-0.07 518.4-0.54 516.59-1.32ZM525.92-2.44L525.92-2.44Q528.55-2.44 530.34-4.49 532.12-6.54 532.17-10.45L532.17-10.45Q532.22-14.26 530.41-16.04 528.6-17.82 526.06-17.82L526.06-17.82Q524.7-17.82 523.45-17.24 522.21-16.65 521.28-15.48L521.28-15.48 521.28-3.91Q522.16-3.22 523.33-2.83 524.5-2.44 525.92-2.44ZM548.62 0.39L548.62 0.39Q546.76 0.39 544.88-0.05 543-0.49 541.69-1.17L541.69-1.17 541.44-6.59 544.08-6.59 545.05-3.08Q546.76-1.9 548.96-1.9L548.96-1.9Q550.57-1.9 551.52-2.66 552.48-3.42 552.48-4.64L552.48-4.64Q552.48-5.86 551.57-6.76 550.67-7.67 547.98-8.74L547.98-8.74Q544.47-10.16 543.05-11.62 541.64-13.09 541.64-15.33L541.64-15.33Q541.64-17.14 542.76-18.53 543.88-19.92 545.84-20.73 547.79-21.53 550.38-21.53L550.38-21.53Q551.79-21.53 553.26-21.29 554.72-21.04 555.75-20.61L555.75-20.61 556.29-15.33 553.75-15.33 552.57-18.65Q552.09-18.95 551.4-19.12 550.72-19.29 549.99-19.29L549.99-19.29Q548.33-19.29 547.33-18.53 546.32-17.77 546.32-16.6L546.32-16.6Q546.32-15.28 547.45-14.4 548.57-13.53 551.4-12.26L551.4-12.26Q554.63-10.84 555.94-9.4 557.26-7.96 557.26-5.86L557.26-5.86Q557.26-3.13 554.84-1.37 552.43 0.39 548.62 0.39ZM571.37 0L559.99 0 559.85-1.95 563.12-2.69Q563.17-2.88 563.22-3.44 563.27-4 563.29-5.05 563.31-6.1 563.31-7.76L563.31-7.76 563.36-11.23Q563.36-13.04 563.27-14.53 563.17-16.02 562.97-16.99L562.97-16.99 559.7-17.68 559.7-19.48 567.32-21.44 568.25-20.7Q568.1-19.19 568.03-17.68 567.95-16.16 567.95-14.16L567.95-14.16 567.95-8.01Q567.95-6.01 568.03-4.54 568.1-3.08 568.25-2.69L568.25-2.69 571.52-1.95 571.37 0ZM565.71-26.46L565.71-26.46Q564.24-26.46 563.29-27.39 562.34-28.32 562.34-29.69L562.34-29.69Q562.34-31.01 563.29-31.96 564.24-32.91 565.71-32.91L565.71-32.91Q567.17-32.91 568.07-31.96 568.98-31.01 568.98-29.69L568.98-29.69Q568.98-28.32 568.07-27.39 567.17-26.46 565.71-26.46ZM588.7-4.64L589.68-3.37Q588.85-1.61 587.12-0.61 585.38 0.39 583.48 0.39L583.48 0.39Q580.35 0.39 578.35-1.46 576.35-3.32 576.35-7.03L576.35-7.03 576.49-18.41 573.08-18.41 573.08-19.63 580.01-25.63 581.18-25.63 581.08-19.63 580.99-7.71Q580.99-5.37 582.04-4.25 583.09-3.13 585.04-3.13L585.04-3.13Q586.11-3.13 587.04-3.54 587.97-3.96 588.7-4.64L588.7-4.64ZM588.26-18.41L578.94-18.41 578.94-21.09 588.26-21.09 588.26-18.41ZM601.25 0.39L601.25 0.39Q598.32 0.39 595.97-0.93 593.63-2.25 592.26-4.64 590.9-7.03 590.9-10.21L590.9-10.21Q590.9-13.67 592.36-16.21 593.83-18.75 596.19-20.17 598.56-21.58 601.3-21.53L601.3-21.53Q605.3-21.48 607.5-18.92 609.7-16.36 609.7-11.96L609.7-11.96 609.7-10.99 594.95-10.99 594.95-13.28 605.98-13.28 605.35-12.45 605.35-13.72Q605.35-16.31 604.18-17.8 603.01-19.29 600.91-19.29L600.91-19.29Q599.59-19.29 598.42-18.51 597.24-17.72 596.51-16.16 595.78-14.6 595.78-12.26L595.78-12.26 595.78-11.52Q595.78-7.71 597.73-5.52 599.69-3.32 602.81-3.32L602.81-3.32Q604.47-3.32 605.84-3.96 607.21-4.59 608.47-6.15L608.47-6.15 609.79-4.93Q608.43-2.25 606.2-0.93 603.98 0.39 601.25 0.39Z" opacity="1" transform="matrix(1,0,0,1,0,0)" fill="#000000" class="slogan-text-1" data-fill-palette-color="secondary" id="text-1"></path></svg></g></svg></g></svg></g></svg></g><g transform="matrix(1,0,0,1,411.6551830550624,0)"><svg viewBox="0 0 214.48851839999998 214.48851839999998" height="214.48851839999998" width="214.48851839999998"><g><svg></svg></g><g id="icon-0"><svg viewBox="0 0 214.48851839999998 214.48851839999998" height="214.48851839999998" width="214.48851839999998"><g><rect width="195.02567136" height="195.02567136" x="9.731423519999993" y="9.731423519999993" fill="#000000" data-fill-palette-color="accent"></rect><rect width="195.02567136" height="195.02567136" x="-5.329070518200751e-15" y="-5.329070518200751e-15" fill="#000000" opacity="0.5" data-fill-palette-color="accent"></rect></g><g transform="matrix(1,0,0,1,27.80406719999999,45.1299730752)"><svg viewBox="0 0 158.880384 124.22857224959998" height="124.22857224959998" width="158.880384"><g><svg xmlns="http://www.w3.org/2000/svg" xmlns:xlink="http://www.w3.org/1999/xlink" version="1.1" x="0" y="0" viewBox="5 14.814999999999998 90 70.371" enable-background="new 0 0 100 100" xml:space="preserve" height="124.22857224959998" width="158.880384" class="icon-cg-0" data-fill-palette-color="quaternary" id="cg-0"><g fill="#471aa0" data-fill-palette-color="quaternary"><g fill="#471aa0" data-fill-palette-color="quaternary"><g fill="#471aa0" data-fill-palette-color="quaternary"><circle cx="32.558" cy="34.641" r="20" fill="#ffffff" data-fill-palette-color="quaternary"></circle><path d="M60.117 85.185V68.309c0-7.653-5.507-14.016-12.774-15.354-3.631 4.062-8.908 6.621-14.785 6.621s-11.154-2.559-14.785-6.621C10.507 54.292 5 60.655 5 68.309v16.877H60.117z" fill="#ffffff" data-fill-palette-color="quaternary"></path></g><circle cx="74.746" cy="42.242" r="15" fill="#ffffff" data-fill-palette-color="quaternary"></circle><path d="M85.612 55.702c-2.668 2.985-6.547 4.866-10.866 4.866-4.319 0-8.197-1.881-10.866-4.866-0.959 0.176-1.875 0.474-2.735 0.873 2.37 2.737 3.806 6.304 3.806 10.209v12.605H95V66.986C95 61.361 90.953 56.685 85.612 55.702z" fill="#ffffff" data-fill-palette-color="quaternary"></path></g></g></svg></g></svg></g></svg></g></svg></g></svg></g><defs></defs></svg><rect width="395.52" height="135.487266901233" fill="none" stroke="none" visibility="hidden"></rect></g></svg></g></svg>